<?xml version="1.0" standalone="no"?>
<!DOCTYPE svg PUBLIC "-//W3C//DTD SVG 20010904//EN"
 "http://www.w3.org/TR/2001/REC-SVG-20010904/DTD/svg10.dtd">
<svg version="1.0" xmlns="http://www.w3.org/2000/svg"
 width="307.000000pt" height="368.000000pt" viewBox="0 0 307.000000 368.000000"
 preserveAspectRatio="xMidYMid meet">

<g transform="translate(0.000000,368.000000) scale(0.100000,-0.100000)"
fill="#000000" stroke="none">
<path d="M1524 3656 c-44 -14 -132 -47 -195 -74 -135 -59 -159 -65 -193 -52
-20 7 -27 19 -32 49 -6 40 -7 40 -34 26 -15 -8 -42 -31 -60 -51 -87 -99 -81
-222 15 -318 34 -34 35 -37 35 -115 0 -55 9 -118 30 -202 16 -67 32 -124 35
-127 3 -3 5 22 5 56 l0 61 43 -16 c62 -23 218 -23 279 0 25 10 52 25 58 33 19
22 63 17 121 -13 48 -25 63 -28 154 -27 71 1 118 7 162 21 l62 21 3 -72 3 -71
25 110 c23 100 25 131 25 335 0 213 -1 227 -22 266 -20 38 -65 69 -90 62 -5
-2 -22 12 -37 30 -16 18 -49 45 -74 59 -40 24 -59 28 -142 30 -78 3 -110 -1
-176 -21z m337 -231 c29 -4 37 -11 48 -40 7 -20 30 -56 52 -81 37 -43 39 -48
39 -114 l0 -68 -32 16 c-80 41 -289 21 -370 -34 l-36 -25 -70 30 c-60 27 -82
31 -154 31 -46 0 -110 -7 -141 -15 -32 -8 -60 -15 -62 -15 -3 0 -5 14 -5 30 0
28 2 30 28 23 15 -5 54 -8 88 -7 84 1 152 39 211 119 79 105 135 140 246 154
61 8 86 8 158 -4z m-456 -380 c51 -24 85 -48 85 -58 0 -11 -66 -27 -114 -27
-62 1 -114 19 -161 54 -58 44 -46 53 70 55 55 1 81 -4 120 -24z m539 16 c17
-6 15 -10 -14 -34 -71 -60 -160 -81 -245 -57 -45 13 -45 13 -28 33 37 41 112
67 193 66 41 0 83 -4 94 -8z"/>
<path d="M382 2694 l-23 -16 2 -282 2 -282 46 -11 c25 -6 47 -9 49 -8 2 2 3
118 2 259 l-1 256 1076 0 1075 0 0 -261 c0 -245 1 -261 18 -254 9 4 31 9 48
12 29 5 31 8 33 47 0 22 3 145 7 273 l6 232 -26 26 -25 25 -1133 0 c-1023 0
-1136 -2 -1156 -16z"/>
<path d="M471 2348 c1 -244 5 -280 32 -274 7 1 9 1 5 -1 -5 -3 -8 -17 -8 -32
0 -15 -5 -32 -11 -38 -7 -7 -2 -17 21 -33 17 -12 34 -20 36 -17 3 3 -4 11 -17
18 -21 11 -21 13 -5 24 9 7 13 16 8 19 -6 3 -12 -1 -16 -9 -3 -8 -11 -15 -17
-15 -8 0 -7 6 3 18 9 9 14 23 12 30 -1 7 0 8 3 2 10 -20 23 -9 17 15 -4 16 -2
25 6 25 6 0 10 -6 7 -12 -2 -7 0 -21 5 -32 8 -14 7 -17 -3 -11 -8 6 -11 4 -6
-7 3 -9 0 -21 -6 -28 -9 -10 -9 -12 4 -7 26 9 20 -76 -8 -105 -14 -15 -19 -28
-14 -37 7 -11 10 -11 15 0 3 8 4 1 1 -16 -3 -16 -14 -42 -25 -56 -14 -20 -17
-37 -13 -67 4 -32 2 -43 -10 -48 -13 -4 -15 -31 -16 -160 l-2 -154 1066 0
1066 1 -2 154 c0 85 -4 155 -8 155 -4 0 -12 -5 -18 -11 -8 -8 -11 1 -10 32 1
30 8 49 21 60 17 14 17 16 3 22 -11 4 -14 2 -10 -9 3 -7 2 -14 -1 -14 -4 0
-11 11 -16 25 -5 14 -14 25 -20 25 -6 0 -8 -4 -5 -10 3 -5 2 -10 -4 -10 -18 0
-21 18 -5 34 21 22 1 51 -25 36 -13 -7 -18 -5 -18 6 0 8 6 13 14 10 9 -4 8 3
-4 22 -16 25 -16 26 -1 14 10 -8 23 -10 29 -6 9 5 10 2 6 -9 -3 -8 0 -20 7
-27 10 -8 15 -7 19 4 7 17 -26 50 -38 39 -4 -5 -5 -3 -2 4 4 6 2 24 -3 39 -9
24 -7 31 15 53 14 14 25 20 25 13 0 -7 -7 -15 -15 -18 -8 -4 -15 -11 -15 -17
0 -5 8 -3 18 6 10 10 26 17 35 17 9 0 17 5 17 11 0 6 -6 9 -13 6 -16 -6 -11
50 7 73 15 20 20 70 7 70 -6 0 -8 -7 -5 -15 4 -8 2 -15 -4 -15 -6 0 -8 -9 -5
-20 3 -11 1 -20 -4 -20 -12 0 -14 38 -2 46 6 4 6 11 -2 20 -6 8 -9 17 -5 21 3
3 6 1 6 -5 0 -6 7 -9 15 -6 13 5 15 40 15 230 l0 223 -1065 1 -1066 0 2 -252z
m2116 24 l-1 -217 -6 203 -5 202 -1050 3 -1050 2 1045 5 1045 5 -1000 5 -1000
5 1012 2 1012 2 -2 -217z m-1004 86 c9 -5 17 -15 17 -23 0 -10 -14 -13 -59
-11 -33 1 -58 -2 -55 -6 3 -4 26 -8 52 -8 27 0 64 -8 85 -19 20 -10 37 -14 37
-9 0 5 -9 12 -20 15 -17 5 -29 23 -15 23 19 0 52 -25 48 -36 -3 -8 7 -28 21
-45 14 -17 26 -35 26 -40 0 -6 4 -8 8 -5 9 6 12 -8 16 -102 2 -40 1 -71 -2
-68 -7 8 -42 -13 -42 -26 0 -7 4 -7 13 1 10 8 14 7 14 -2 0 -7 -12 -13 -26
-13 -28 0 -51 17 -51 36 0 7 9 2 20 -11 15 -19 19 -20 20 -8 0 9 -7 19 -15 23
-10 4 -15 20 -15 50 0 54 -8 76 -26 76 -8 0 -14 5 -14 11 0 5 6 7 13 4 6 -4
-3 7 -21 24 -25 24 -41 31 -74 31 -48 0 -44 -14 5 -14 25 -1 31 -5 29 -18 -2
-11 3 -18 13 -18 9 0 13 4 10 10 -3 5 0 7 7 5 8 -3 14 -13 14 -23 0 -9 4 -28
8 -41 6 -16 5 -21 -2 -17 -8 4 -10 -14 -9 -58 1 -35 -2 -62 -7 -59 -4 3 -6 40
-4 82 4 73 3 77 -16 77 -12 -1 -20 5 -18 12 1 6 -3 12 -9 12 -6 0 -9 7 -5 15
4 12 0 14 -21 10 -15 -2 -33 1 -40 7 -10 8 -19 6 -35 -8 -33 -30 -48 -78 -48
-154 l0 -70 168 -1 c92 -1 173 -1 181 0 7 2 10 -2 6 -8 -3 -6 1 -18 9 -27 13
-13 16 -47 18 -192 l2 -177 6 170 c3 94 1 175 -3 182 -5 7 -6 17 -2 23 4 6 2
17 -4 24 -8 9 -4 12 17 12 25 0 28 -3 28 -38 1 -44 -5 -43 -17 4 -8 31 -8 31
-4 -7 3 -22 6 -112 7 -200 l2 -160 6 125 6 125 1 -130 c1 -71 -4 -139 -9 -149
-10 -19 -11 -19 -24 -1 -10 14 -14 15 -14 4 0 -20 37 -43 43 -26 4 9 6 9 6 0
1 -19 -20 -27 -30 -12 -7 11 -9 11 -9 1 0 -7 -5 -10 -10 -7 -6 3 -22 -3 -36
-14 -25 -20 -40 -21 -219 -21 -179 0 -194 1 -219 21 -14 11 -26 16 -26 10 0
-6 5 -11 11 -11 5 0 7 -4 4 -10 -7 -12 -26 -14 -24 -2 4 21 -2 32 -13 27 -7
-4 -6 -1 2 7 13 11 15 44 12 202 -2 155 0 193 13 212 11 17 12 25 3 30 -6 4
-8 3 -4 -4 3 -6 2 -13 -4 -17 -5 -3 -10 1 -10 9 0 8 5 18 10 21 6 3 11 25 11
48 l2 42 7 -40 c6 -34 7 -29 9 35 1 41 8 93 16 114 8 22 11 44 8 49 -3 6 -1 7
5 3 6 -3 18 6 27 22 10 16 37 37 60 48 24 10 39 22 33 25 -5 3 -10 10 -10 15
0 5 -4 8 -9 7 -5 -2 -9 1 -9 6 0 5 19 7 43 4 31 -3 38 -2 27 6 -8 6 -24 11
-35 12 -17 1 -16 2 5 9 27 8 74 3 103 -12z m-164 -68 c-6 -5 -19 -6 -27 -2 -9
3 -13 1 -10 -4 3 -5 0 -15 -8 -22 -16 -15 -18 -8 -4 17 5 11 21 19 36 19 17 0
22 -3 13 -8z m325 4 c9 -3 16 -10 16 -15 0 -5 -12 -4 -26 1 -35 14 -37 13 -16
-9 9 -10 21 -18 26 -17 6 1 11 -8 13 -19 l3 -20 -9 20 c-7 14 -10 16 -11 5 -2
-8 -2 -18 -1 -22 0 -5 -4 -8 -10 -8 -6 0 -8 9 -4 20 5 14 3 18 -8 14 -7 -2
-20 2 -27 11 -23 28 14 55 54 39z m-414 -94 c0 -25 -17 -26 -23 -2 -4 13 -5
12 -6 -5 0 -12 4 -25 9 -28 6 -3 10 -11 10 -16 0 -6 -3 -8 -7 -6 -5 3 -9 -9
-9 -26 -1 -18 -6 -57 -11 -87 -9 -48 -10 -41 -7 55 1 61 3 116 3 123 2 21 41
14 41 -8z m441 -60 c5 0 9 -18 9 -40 0 -22 -4 -40 -10 -40 -5 0 -10 10 -10 23
0 12 -2 45 -4 72 -2 28 -1 35 1 18 2 -18 8 -33 14 -33z m-282 33 c-7 -7 -19
-11 -27 -8 -10 4 -12 0 -8 -10 3 -9 2 -13 -4 -10 -6 3 -10 1 -10 -6 0 -7 -3
-10 -6 -7 -9 10 16 49 27 43 5 -4 9 1 9 9 0 10 6 13 15 10 12 -5 13 -9 4 -21z
m55 -25 c-4 -7 -10 -5 -16 6 -5 9 -14 14 -20 10 -7 -4 -6 -9 2 -14 7 -5 2 -7
-14 -7 l-26 0 21 18 c16 14 26 16 40 8 11 -5 17 -15 13 -21z m102 -74 c-2 -21
-4 -45 -5 -51 0 -7 -6 -13 -12 -13 -6 0 -8 12 -3 33 4 17 7 47 7 65 0 22 3 28
8 19 5 -8 7 -32 5 -53z m-211 -28 c1 -36 -1 -66 -6 -66 -5 0 -8 32 -7 70 1 87
8 84 13 -4z m322 -51 c0 -8 -4 -15 -9 -15 -10 0 -11 14 -1 23 9 10 10 9 10 -8z
m33 -45 c0 -5 -2 -10 -4 -10 -3 0 -8 5 -11 10 -3 6 -1 10 4 10 6 0 11 -4 11
-10z m-555 -417 c4 -20 3 -33 -3 -33 -16 0 -20 42 -19 228 l0 177 8 -170 c4
-93 10 -185 14 -202z m30 183 c0 -156 -2 -179 -12 -153 -16 36 -18 257 -3 257
6 0 10 18 10 40 0 22 1 40 3 40 1 0 2 -83 2 -184z m1230 129 c1 -24 -3 -42 -7
-39 -4 3 -7 25 -6 50 2 56 12 48 13 -11z m-1938 -78 c0 -7 -9 -13 -19 -13 -18
0 -18 1 -2 13 10 7 18 13 19 13 1 0 2 -6 2 -13z m-2 -93 c-2 -31 -7 -59 -10
-62 -4 -4 -6 8 -3 26 2 17 1 32 -3 32 -12 0 -19 -30 -13 -56 4 -14 2 -24 -5
-24 -18 0 -13 65 7 86 19 19 22 26 22 44 0 6 2 10 4 10 2 0 2 -25 1 -56z
m1952 11 c-13 -27 -29 -35 -22 -10 3 8 7 22 10 31 3 8 9 13 14 10 5 -4 4 -16
-2 -31z m-1953 -131 c2 -22 2 -33 -1 -26 -3 6 -9 12 -14 12 -6 0 -5 -8 1 -20
7 -13 7 -20 1 -20 -6 0 -13 11 -17 25 -3 14 -10 23 -14 20 -5 -3 -6 -15 -2
-27 3 -14 2 -19 -6 -14 -22 13 -13 45 13 52 17 4 25 13 25 27 0 34 11 12 14
-29z m2035 -166 c1 -79 -2 -128 -8 -128 -6 0 -9 44 -6 117 2 65 -1 123 -6 129
-5 7 -4 11 5 11 11 0 14 -27 15 -129z m-1252 76 c-3 -3 -12 -4 -19 -1 -8 3 -5
6 6 6 11 1 17 -2 13 -5z m404 -16 c-14 -5 -29 -4 -39 2 -14 9 -13 10 6 5 12
-4 22 -2 22 4 0 6 7 8 17 4 14 -5 13 -8 -6 -15z m-411 -4 c0 -2 -11 -4 -25 -4
-14 0 -25 4 -25 9 0 4 11 6 25 3 14 -2 25 -6 25 -8z m315 9 c-93 -7 -302 -7
-292 -1 7 4 84 7 172 6 88 -1 142 -3 120 -5z m110 -23 c-3 -5 -18 -9 -33 -9
l-27 1 30 8 c17 4 31 8 33 9 2 0 0 -3 -3 -9z m-418 -6 c-3 -3 -12 -4 -19 -1
-8 3 -5 6 6 6 11 1 17 -2 13 -5z"/>
<path d="M1520 2455 c14 -8 19 -14 11 -15 -8 0 -12 -2 -9 -5 3 -4 18 -3 34 1
l29 7 -35 13 c-47 17 -61 16 -30 -1z"/>
<path d="M1810 1659 c0 -5 5 -7 10 -4 6 3 10 8 10 11 0 2 -4 4 -10 4 -5 0 -10
-5 -10 -11z"/>
<path d="M1692 2368 c5 -15 28 -23 28 -10 0 5 -7 13 -16 16 -10 4 -14 1 -12
-6z"/>
<path d="M403 1627 l-43 -10 0 -198 0 -199 1178 2 1177 3 3 196 2 196 -39 7
c-22 3 -46 9 -55 12 -14 5 -16 -11 -16 -150 l0 -156 -1075 0 -1075 0 0 155 c0
85 -3 154 -7 154 -5 -1 -27 -6 -50 -12z"/>
<path d="M1498 1159 c-25 -14 -24 -71 1 -93 26 -24 60 -17 85 17 19 26 19 30
5 55 -16 30 -61 40 -91 21z"/>
</g>
</svg>
