<?xml version="1.0" standalone="no"?>
<!DOCTYPE svg PUBLIC "-//W3C//DTD SVG 20010904//EN"
 "http://www.w3.org/TR/2001/REC-SVG-20010904/DTD/svg10.dtd">
<svg version="1.0" xmlns="http://www.w3.org/2000/svg"
 width="300.000000pt" height="300.000000pt" viewBox="0 0 300.000000 300.000000"
 preserveAspectRatio="xMidYMid meet">
<metadata>
Created by potrace 1.13, written by Peter Selinger 2001-2015
</metadata>
<g transform="translate(0.000000,300.000000) scale(0.100000,-0.100000)"
fill="#000000" stroke="none">
<path d="M1535 2989 c-16 -4 -43 -11 -60 -13 -16 -3 -75 -22 -130 -41 -204
-73 -247 -78 -265 -29 -6 14 -8 30 -4 35 10 17 -13 9 -54 -18 -61 -42 -85 -78
-90 -138 -5 -60 9 -88 68 -145 36 -34 37 -38 43 -120 5 -75 11 -120 17 -127 2
-2 4 -7 5 -13 1 -5 4 -12 5 -15 1 -3 4 -9 5 -15 1 -5 4 -13 5 -17 4 -12 7 -27
8 -40 1 -7 5 -13 10 -13 4 0 5 21 3 46 -3 45 -2 46 20 41 106 -26 163 -30 237
-18 42 7 96 23 118 36 l41 24 39 -19 c82 -43 266 -50 366 -14 l38 13 0 -54 c0
-56 14 -77 18 -27 1 15 10 52 20 82 13 44 17 92 17 240 0 176 -1 187 -23 222
-18 29 -32 39 -60 44 -20 4 -54 22 -74 40 -20 18 -60 40 -89 48 -57 17 -185
20 -234 5z m293 -195 c22 -5 34 -14 41 -35 5 -16 26 -44 45 -64 33 -32 36 -41
36 -90 0 -30 -1 -55 -2 -55 -2 0 -25 7 -52 15 -94 29 -242 13 -335 -36 l-38
-19 -67 25 c-77 29 -197 34 -281 11 -59 -15 -75 -12 -75 16 0 19 4 20 63 15
120 -11 208 22 272 105 32 40 92 81 153 103 38 14 187 20 240 9z m-411 -329
l48 -29 -35 -14 c-68 -28 -202 -2 -268 51 -24 19 16 27 115 23 79 -3 98 -7
140 -31z m490 22 c-2 -6 -27 -24 -55 -40 -63 -35 -156 -46 -214 -25 l-37 13
34 24 c19 13 50 27 67 31 48 12 210 10 205 -3z"/>
<path d="M371 2194 c-22 -16 -22 -16 -20 -243 l3 -228 58 -13 c31 -7 62 -17
67 -24 10 -12 10 -66 -1 -60 -4 2 -9 0 -13 -6 -3 -6 4 -10 18 -10 27 0 57 -28
57 -53 0 -9 -11 -22 -24 -29 -20 -11 -22 -15 -10 -26 10 -10 14 -10 14 -1 0 7
2 10 5 7 13 -12 -19 -68 -41 -74 -23 -6 -24 -8 -9 -23 35 -40 5 -69 -88 -86
l-37 -7 2 -162 3 -161 1130 -3 c622 -1 1140 0 1153 3 22 5 22 8 22 164 l0 158
-37 6 c-21 3 -46 8 -55 12 -16 6 -18 -5 -21 -127 l-3 -133 -2 139 c-2 108 -5
137 -15 133 -18 -7 -19 33 -2 60 13 20 12 22 -14 31 -19 7 -30 19 -33 36 -3
14 -2 24 1 22 3 -2 12 2 18 9 10 11 8 15 -10 21 -12 5 -25 7 -29 6 -3 -1 -2
13 3 31 5 17 9 33 9 34 0 1 15 5 34 8 l34 7 -16 28 c-15 26 -15 30 1 48 15 16
17 44 17 225 l0 207 -1040 0 -1040 0 -3 -197 -2 -198 -3 203 -2 202 1050 0
1050 0 0 -216 c0 -202 1 -216 18 -209 9 4 31 9 47 12 36 6 32 -19 41 264 l6
186 -28 22 -27 21 -1106 0 c-1000 0 -1109 -2 -1130 -16z m1233 -254 c18 -11
36 -17 39 -13 4 3 7 1 7 -6 0 -7 5 -9 13 -5 6 4 9 4 5 -1 -4 -4 4 -27 17 -50
32 -54 33 -108 3 -129 -12 -9 -26 -16 -30 -16 -17 0 -38 34 -38 63 0 37 -26
81 -42 71 -7 -4 -8 -2 -4 4 10 17 -27 32 -78 32 -36 0 -52 -6 -78 -29 -30 -26
-33 -35 -36 -100 l-4 -71 159 0 c123 0 163 -3 179 -15 12 -8 24 -12 27 -9 10
10 8 -326 -2 -345 -20 -36 -58 -42 -252 -38 -101 3 -195 6 -209 9 l-25 5 -3
166 c-3 156 -2 169 17 193 16 20 21 41 21 83 0 31 5 74 12 96 6 22 11 44 10
48 -2 5 2 6 8 2 5 -3 13 1 16 9 4 9 32 29 63 44 69 33 153 35 205 2z"/>
</g>
</svg>
