<?xml version="1.0" standalone="no"?>
<!DOCTYPE svg PUBLIC "-//W3C//DTD SVG 20010904//EN"
 "http://www.w3.org/TR/2001/REC-SVG-20010904/DTD/svg10.dtd">
<svg version="1.0" xmlns="http://www.w3.org/2000/svg"
 width="2560.000000pt" height="1600.000000pt" viewBox="0 0 2560.000000 1600.000000"
 preserveAspectRatio="xMidYMid meet">
<metadata>
Created by potrace 1.13, written by Peter Selinger 2001-2015
</metadata>
<g transform="translate(0.000000,1600.000000) scale(0.100000,-0.100000)"
fill="#000000" stroke="none">
<path d="M17245 14519 c-77 -5 -234 -20 -350 -34 -234 -28 -373 -41 -548 -51
-101 -6 -117 -9 -113 -23 44 -155 69 -221 82 -221 9 0 149 29 312 64 674 146
679 147 1277 153 506 5 730 -4 793 -34 40 -19 143 -137 221 -253 107 -159 232
-423 346 -730 40 -107 107 -285 148 -395 128 -338 188 -563 219 -815 17 -142
17 -779 0 -965 -34 -366 -85 -616 -173 -843 -78 -202 -300 -632 -569 -1103
-100 -176 -213 -324 -349 -460 -242 -242 -485 -377 -778 -432 l-33 -6 0 287 0
288 171 175 c212 216 617 650 695 744 193 235 244 384 244 716 0 258 -46 701
-91 876 -48 189 -170 357 -498 683 -300 300 -389 365 -576 423 -147 45 -211
52 -500 51 -544 -1 -1065 -54 -1339 -135 -105 -31 -269 -120 -391 -211 -209
-156 -589 -562 -747 -797 -226 -338 -281 -583 -258 -1166 10 -277 23 -359 85
-546 63 -189 260 -557 365 -682 47 -56 141 -113 234 -143 45 -14 169 -43 277
-64 221 -44 360 -78 638 -156 694 -196 811 -199 1249 -34 90 34 165 60 166 58
8 -9 88 -450 83 -455 -11 -11 -901 -24 -1352 -20 -511 4 -513 5 -730 81 -126
44 -510 208 -641 274 -273 137 -527 349 -709 590 -105 139 -163 284 -210 516
-48 243 -50 296 -50 1201 0 906 2 957 51 1223 58 316 190 592 472 986 182 254
341 381 682 548 635 310 687 339 840 470 79 68 166 165 157 174 -3 3 -94 34
-201 69 l-196 63 -5 -32 c-2 -17 -9 -73 -15 -125 -6 -52 -13 -98 -16 -102 -8
-13 -116 -75 -412 -236 -478 -259 -641 -369 -827 -557 -108 -109 -146 -159
-299 -401 -214 -336 -336 -705 -388 -1170 -19 -170 -19 -1652 0 -1845 34 -345
77 -543 151 -695 111 -227 292 -427 581 -643 180 -134 472 -269 976 -452 267
-98 450 -124 849 -124 143 0 393 8 555 18 184 11 379 17 520 14 212 -3 228 -4
272 -26 41 -20 49 -30 59 -65 23 -87 40 -220 59 -480 24 -310 45 -448 94 -602
76 -240 104 -402 151 -879 61 -605 78 -683 255 -1211 150 -448 230 -728 273
-967 13 -72 13 -77 -2 -68 -10 5 -95 54 -190 110 -313 183 -387 215 -791 350
-390 130 -520 189 -990 450 -470 261 -585 310 -1028 441 -385 113 -875 261
-1142 344 -113 35 -281 85 -374 110 -210 58 -392 121 -556 192 -114 50 -290
139 -290 148 0 1 16 32 36 67 103 180 188 379 219 510 22 90 36 244 29 300
l-7 48 -39 -52 c-181 -242 -336 -602 -388 -903 -6 -33 -13 -72 -16 -86 -5 -26
0 -29 107 -74 388 -164 768 -290 1569 -520 660 -190 1039 -310 1220 -387 142
-60 346 -165 619 -316 432 -239 593 -310 986 -437 402 -129 465 -158 800 -364
261 -161 380 -246 488 -350 122 -117 170 -187 282 -406 261 -510 309 -600 385
-735 45 -80 87 -151 92 -157 23 -28 224 181 278 287 32 64 67 169 145 435 127
430 180 574 302 819 104 207 186 403 303 724 149 405 217 573 305 749 46 93
93 182 104 200 l20 32 68 -28 c166 -71 496 -168 541 -159 40 8 -223 198 -386
278 -90 45 -295 120 -326 120 -14 0 -26 -25 -191 -395 -136 -306 -205 -481
-281 -713 -75 -228 -111 -312 -277 -657 -145 -302 -171 -367 -262 -650 -37
-115 -90 -271 -117 -345 -49 -131 -161 -380 -172 -380 -8 0 -153 245 -264 446
-172 312 -256 440 -427 657 -150 191 -189 274 -236 507 -64 319 -165 658 -305
1032 -133 355 -170 544 -214 1098 -35 445 -42 485 -154 866 -24 82 -51 193
-60 245 -12 74 -76 789 -80 897 -1 21 10 28 94 58 263 94 516 252 724 453 192
186 315 353 457 621 45 85 138 256 207 380 249 446 365 718 417 974 59 291 88
646 88 1061 -1 655 -36 824 -367 1760 -70 198 -256 577 -359 732 -82 122 -180
247 -226 285 -50 43 -143 48 -837 47 -346 -1 -692 -6 -769 -10z m183 -2080
c169 -23 326 -99 496 -240 111 -94 436 -419 508 -511 148 -187 170 -258 224
-743 23 -208 23 -509 1 -595 -43 -161 -123 -283 -347 -522 -74 -79 -189 -206
-254 -282 -353 -408 -643 -633 -958 -744 -284 -101 -523 -81 -1098 88 -188 56
-467 125 -645 160 -214 43 -287 82 -372 202 -332 465 -464 1070 -352 1620 76
378 345 764 809 1162 325 278 492 331 1245 396 132 11 267 22 300 24 92 6 357
-3 443 -15z"/>
<path d="M15842 12139 c-57 -28 -85 -70 -90 -134 -13 -162 181 -250 287 -130
79 90 53 218 -53 266 -54 24 -91 24 -144 -2z"/>
<path d="M16922 12139 c-121 -60 -122 -238 -2 -299 73 -37 151 -21 207 43 73
84 43 210 -62 258 -52 24 -91 24 -143 -2z"/>
<path d="M15660 11650 c-94 -20 -179 -50 -285 -101 l-70 -34 120 -7 c66 -4
600 -6 1187 -5 l1068 2 0 77 0 77 -102 3 c-57 3 -492 5 -968 6 -802 1 -871 -1
-950 -18z"/>
<path d="M16565 11284 c-126 -12 -243 -24 -260 -26 l-30 -3 -6 -100 c-3 -55
-5 -101 -5 -102 1 -1 118 15 261 35 l260 38 8 69 c4 39 6 79 5 90 l-3 21 -230
-22z"/>
<path d="M4720 3930 l0 -110 120 0 120 0 0 110 0 110 -120 0 -120 0 0 -110z"/>
<path d="M5790 3920 l0 -120 55 0 c53 0 55 -1 55 -27 -1 -57 -46 -110 -128
-150 -2 0 6 -24 19 -52 l21 -51 60 32 c69 36 114 89 135 156 8 26 17 111 20
190 l6 142 -121 0 -122 0 0 -120z"/>
<path d="M12840 3415 l0 -625 119 0 119 0 4 293 c3 252 6 297 21 332 36 80 88
115 171 116 65 1 110 -20 133 -64 16 -28 18 -69 21 -354 l3 -323 120 0 121 0
-4 353 c-5 401 -8 417 -84 493 -33 33 -59 48 -114 65 -125 38 -241 13 -342
-72 l-48 -40 0 225 0 226 -120 0 -120 0 0 -625z"/>
<path d="M13910 3930 l0 -110 120 0 120 0 0 110 0 110 -120 0 -120 0 0 -110z"/>
<path d="M5340 3952 l-115 -68 -3 -92 -3 -92 -54 0 -55 0 0 -95 0 -95 54 0 54
0 4 -297 c3 -286 4 -300 25 -340 39 -73 103 -103 218 -103 39 0 95 7 124 16
l53 15 -7 87 c-4 48 -9 90 -11 94 -3 4 -16 3 -30 -2 -14 -6 -43 -10 -64 -10
-68 0 -70 9 -70 292 l0 248 83 0 82 0 0 95 0 95 -82 0 -83 0 -2 160 -3 159
-115 -67z"/>
<path d="M12390 3952 l-115 -68 -3 -92 -3 -92 -54 0 -55 0 0 -95 0 -95 55 0
55 0 0 -265 c0 -150 5 -286 11 -314 23 -109 84 -154 216 -159 55 -3 99 1 138
13 l57 16 -7 87 c-4 48 -9 90 -11 94 -3 4 -16 3 -30 -2 -14 -6 -43 -10 -64
-10 -68 0 -70 9 -70 292 l0 248 85 0 85 0 0 95 0 95 -85 0 -85 0 -2 160 -3
159 -115 -67z"/>
<path d="M6402 3705 c-35 -8 -83 -26 -107 -40 -109 -63 -161 -195 -121 -308
38 -104 124 -155 371 -217 88 -22 166 -47 174 -55 22 -21 18 -72 -8 -99 -49
-53 -199 -60 -270 -13 -22 14 -45 42 -56 67 -18 40 -21 42 -54 37 -20 -3 -73
-11 -118 -18 -46 -6 -83 -16 -83 -21 0 -27 59 -124 97 -159 91 -83 197 -114
373 -107 137 6 204 28 274 90 69 60 100 126 100 213 0 158 -70 214 -365 290
-184 48 -203 56 -219 86 -9 16 -8 26 4 44 22 33 42 42 112 50 98 11 170 -19
209 -89 10 -17 16 -17 68 -7 31 6 81 16 111 22 l54 10 -16 41 c-23 59 -93 132
-150 156 -96 42 -259 53 -380 27z"/>
<path d="M7883 3709 c-154 -26 -255 -132 -255 -269 0 -110 64 -197 178 -240
33 -12 126 -39 208 -60 154 -40 186 -57 186 -97 0 -57 -43 -88 -133 -99 -83
-10 -149 10 -192 57 -19 21 -35 46 -35 53 0 8 -5 18 -10 21 -9 5 -229 -22
-238 -30 -1 -1 5 -19 14 -41 70 -167 218 -242 457 -232 139 6 209 31 280 97
61 57 88 108 94 180 8 85 -11 138 -66 192 -55 53 -126 82 -317 129 -127 31
-182 52 -196 74 -13 20 -8 52 10 69 27 24 116 40 180 32 47 -6 63 -13 93 -43
20 -21 38 -43 40 -51 4 -11 24 -10 113 7 60 12 111 23 113 26 9 8 -48 106 -80
139 -19 18 -50 41 -71 51 -86 41 -248 56 -373 35z"/>
<path d="M8965 3710 c-176 -36 -315 -168 -354 -340 -15 -65 -13 -195 4 -269
48 -204 224 -331 456 -331 136 0 245 46 336 142 88 94 123 188 123 334 0 155
-46 264 -151 358 -106 95 -265 136 -414 106z m193 -209 c85 -44 126 -125 127
-251 0 -112 -22 -175 -80 -229 -67 -62 -158 -76 -234 -36 -43 22 -99 90 -113
137 -7 24 -12 81 -12 128 1 127 42 207 129 253 43 23 137 22 183 -2z"/>
<path d="M10117 3706 c-51 -14 -149 -77 -173 -110 -13 -19 -14 -15 -14 42 l0
62 -110 0 -110 0 0 -455 0 -455 119 0 120 0 3 308 c3 302 3 308 27 348 30 54
86 85 149 86 59 0 86 -15 109 -62 15 -30 18 -80 21 -357 l4 -323 119 0 119 0
0 283 c-1 313 6 360 59 411 56 54 153 64 201 21 35 -32 40 -82 40 -402 l0
-313 121 0 120 0 -3 368 -3 367 -30 55 c-91 166 -340 187 -493 40 l-43 -41
-44 49 c-26 28 -63 57 -87 67 -57 22 -162 28 -221 11z"/>
<path d="M11520 3704 c-192 -52 -302 -219 -304 -459 -2 -314 164 -486 458
-473 124 6 195 31 264 93 55 50 122 162 100 170 -7 2 -61 12 -119 23 l-107 18
-21 -43 c-11 -24 -35 -52 -53 -63 -39 -24 -113 -26 -162 -6 -59 24 -116 115
-116 185 0 21 0 21 300 21 l300 0 0 68 c0 84 -22 188 -54 257 -78 172 -288
262 -486 209z m234 -212 c36 -33 65 -97 66 -139 l0 -33 -181 0 -181 0 7 43 c9
54 42 114 77 140 58 43 159 37 212 -11z"/>
<path d="M14837 3710 c-59 -15 -116 -48 -168 -97 l-49 -46 0 67 0 66 -110 0
-110 0 0 -455 0 -455 119 0 119 0 4 298 c4 325 6 340 66 395 57 55 174 65 223
21 52 -47 54 -57 57 -396 l4 -318 120 0 120 0 -4 358 c-3 348 -4 358 -26 408
-45 100 -130 153 -255 159 -40 3 -89 0 -110 -5z"/>
<path d="M15688 3701 c-176 -58 -267 -212 -268 -451 0 -268 135 -446 349 -458
101 -5 173 21 244 89 28 27 51 49 51 49 1 0 -1 -53 -4 -118 -6 -135 -18 -163
-78 -189 -45 -20 -177 -22 -210 -4 -13 7 -30 28 -38 47 -8 19 -15 34 -17 34
-1 0 -58 7 -127 15 -69 8 -128 15 -132 15 -12 0 -9 -68 4 -114 8 -26 31 -60
64 -93 65 -65 142 -92 294 -100 246 -13 390 52 452 206 23 55 23 64 26 564 l3
507 -110 0 -111 0 0 -61 0 -62 -50 47 c-28 26 -72 57 -98 68 -66 30 -171 34
-244 9z m267 -189 c87 -47 132 -192 105 -337 -22 -119 -97 -189 -200 -190
-105 0 -167 64 -191 199 -25 143 20 282 105 328 47 26 133 26 181 0z"/>
<path d="M4720 3245 l0 -455 120 0 120 0 0 455 0 455 -120 0 -120 0 0 -455z"/>
<path d="M13910 3245 l0 -455 120 0 120 0 0 455 0 455 -120 0 -120 0 0 -455z"/>
</g>
</svg>
